<?xml version="1.0" encoding="utf-8"?>
<!-- Generator: Adobe Illustrator 23.0.3, SVG Export Plug-In . SVG Version: 6.00 Build 0)  -->
<svg version="1.1" id="Icons" xmlns="http://www.w3.org/2000/svg" xmlns:xlink="http://www.w3.org/1999/xlink" x="0px" y="0px"
	 viewBox="0 0 32 32" style="enable-background:new 0 0 32 32;" xml:space="preserve">
<style type="text/css">
	.st0{fill:none;stroke:#000000;stroke-width:2;stroke-linecap:round;stroke-linejoin:round;stroke-miterlimit:10;}
</style>
<path d="M25,7c-0.4,0-0.8,0.1-1.1,0.2C23.5,5.9,22.4,5,21,5c-0.4,0-0.8,0.1-1.1,0.2C19.5,3.9,18.4,3,17,3s-2.5,0.9-2.9,2.2
	C13.8,5.1,13.4,5,13,5c-1.7,0-3,1.3-3,3v9.2l-1.1-1.9c-0.4-0.7-1.1-1.2-1.9-1.4c-0.8-0.2-1.6,0-2.3,0.4c-1.1,0.8-1.6,2.2-1.1,3.5
	c1.7,4.4,4.5,9.2,7.6,12.9c0.2,0.2,0.5,0.3,0.8,0.3h13c0.4,0,0.8-0.2,0.9-0.6C27.3,27.2,28,23,28,18v-8C28,8.3,26.7,7,25,7z M26,18
	c0,4.4-0.6,8.1-1.7,11H12.5c-2.9-3.4-5.5-7.9-7-11.9c-0.2-0.4,0-0.9,0.4-1.1c0.2-0.1,0.5-0.2,0.7-0.1c0.3,0.1,0.5,0.2,0.6,0.4l3,5.2
	c0.2,0.4,0.7,0.6,1.1,0.5c0.4-0.1,0.7-0.5,0.7-1V8c0-0.6,0.4-1,1-1s1,0.4,1,1v10c0,0.6,0.4,1,1,1s1-0.4,1-1V8V6c0-0.6,0.4-1,1-1
	s1,0.4,1,1v2v10c0,0.6,0.4,1,1,1s1-0.4,1-1V8c0-0.6,0.4-1,1-1s1,0.4,1,1v2v8c0,0.6,0.4,1,1,1s1-0.4,1-1v-8c0-0.6,0.4-1,1-1
	s1,0.4,1,1V18z"/>
</svg>
