<?xml version="1.0" standalone="no"?>
<!DOCTYPE svg PUBLIC "-//W3C//DTD SVG 20010904//EN"
 "http://www.w3.org/TR/2001/REC-SVG-20010904/DTD/svg10.dtd">
<svg version="1.0" xmlns="http://www.w3.org/2000/svg"
 width="414.000000pt" height="262.000000pt" viewBox="0 0 414.000000 262.000000"
 preserveAspectRatio="xMidYMid meet">
<metadata>
Created by potrace 1.13, written by Peter Selinger 2001-2015
</metadata>
<g transform="translate(0.000000,262.000000) scale(0.100000,-0.100000)"
fill="#000000" stroke="none">
<path d="M1575 2319 c-320 -247 -390 -305 -390 -324 0 -20 69 -78 390 -324
232 -179 399 -300 412 -301 43 0 37 34 -36 219 -39 98 -71 181 -71 185 0 3
285 6 633 6 598 0 638 -1 711 -20 214 -54 379 -209 458 -427 16 -45 22 -91 25
-198 6 -165 -8 -239 -65 -355 -51 -105 -178 -232 -282 -283 -156 -76 -77 -72
-1290 -72 -1213 0 -1134 -4 -1290 72 -104 51 -231 178 -282 283 -57 115 -71
190 -65 355 3 106 9 156 25 205 78 238 295 413 541 436 l67 7 0 111 c-1 100 2
117 25 167 15 31 43 75 63 97 l37 40 -54 7 c-127 16 -367 -28 -514 -95 -215
-98 -421 -303 -522 -520 -118 -254 -132 -627 -35 -887 137 -366 442 -619 829
-689 66 -11 269 -14 1175 -14 906 0 1109 3 1175 14 387 70 692 323 829 689 77
207 86 507 20 736 -100 348 -377 624 -728 726 -138 39 -249 45 -887 45 -329 0
-599 3 -599 6 0 4 32 87 71 185 73 185 79 219 36 219 -13 0 -179 -122 -412
-301z"/>
</g>
</svg>
