<?xml version="1.0" standalone="no"?>
<!DOCTYPE svg PUBLIC "-//W3C//DTD SVG 20010904//EN"
 "http://www.w3.org/TR/2001/REC-SVG-20010904/DTD/svg10.dtd">
<svg version="1.0" xmlns="http://www.w3.org/2000/svg"
 width="120.000000pt" height="120.000000pt" viewBox="0 0 120.000000 120.000000"
 preserveAspectRatio="xMidYMid meet">
<metadata>
Created by potrace 1.11, written by Peter Selinger 2001-2013
</metadata>
<g transform="translate(0.000000,120.000000) scale(0.100000,-0.100000)"
fill="#000000" stroke="none">
<path d="M492 1188 c-7 -7 -12 -35 -12 -62 l0 -51 -67 -27 -67 -28 -36 35
c-20 19 -43 35 -51 35 -19 0 -149 -131 -149 -150 0 -8 16 -30 35 -50 l35 -36
-28 -67 -27 -67 -50 0 c-28 0 -56 -5 -63 -12 -16 -16 -16 -200 0 -216 7 -7 36
-12 65 -12 36 0 53 -4 53 -12 0 -7 12 -37 25 -67 l26 -54 -37 -38 c-28 -29
-35 -43 -31 -61 8 -31 119 -138 143 -138 10 0 34 16 54 35 l37 36 54 -26 c30
-13 60 -25 67 -25 8 0 12 -17 12 -53 0 -29 5 -58 12 -65 16 -16 200 -16 216 0
7 7 12 35 12 63 l0 50 67 27 67 28 36 -35 c20 -19 43 -35 51 -35 19 0 149 131
149 150 0 8 -16 30 -35 50 l-35 36 28 67 27 67 50 0 c28 0 56 5 63 12 16 16
16 200 0 216 -7 7 -35 12 -63 12 l-51 0 -27 67 -26 68 34 35 c19 20 35 43 35
51 0 19 -131 149 -150 149 -8 0 -30 -16 -50 -35 l-35 -34 -68 26 -67 27 0 51
c0 28 -5 56 -12 63 -16 16 -200 16 -216 0z m204 -383 c51 -21 103 -83 120
-143 37 -127 -39 -253 -171 -283 -110 -25 -228 45 -260 154 -19 63 -19 71 0
134 38 128 182 192 311 138z"/>
</g>
</svg>
